<svg width="102" height="100" viewBox="0 0 102 100" fill="none" xmlns="http://www.w3.org/2000/svg">
<g filter="url(#filter0_d_1_12)">
<path d="M20 0.5H82C90.5604 0.5 97.5 7.43959 97.5 16V76C97.5 84.5604 90.5604 91.5 82 91.5H20C11.4396 91.5 4.5 84.5604 4.5 76V16L4.50488 15.5996C4.71725 7.22424 11.5735 0.5 20 0.5Z" stroke="white" shape-rendering="crispEdges"/>
</g>
<mask id="path-2-outside-1_1_12" maskUnits="userSpaceOnUse" x="31" y="33" width="36" height="30" fill="black">
<rect fill="white" x="31" y="33" width="36" height="30"/>
<path d="M42.3011 41.3636V43.9205H32.125V41.3636H42.3011ZM35.0909 36.6591H38.108V55.375C38.108 56.2273 38.2315 56.8665 38.4787 57.2926C38.7344 57.7102 39.0582 57.9915 39.4503 58.1364C39.8509 58.2727 40.2727 58.3409 40.7159 58.3409C41.0483 58.3409 41.321 58.3239 41.5341 58.2898C41.7472 58.2472 41.9176 58.2131 42.0455 58.1875L42.6591 60.8977C42.4545 60.9744 42.169 61.0511 41.8026 61.1278C41.4361 61.2131 40.9716 61.2557 40.4091 61.2557C39.5568 61.2557 38.7216 61.0724 37.9034 60.706C37.0938 60.3395 36.4205 59.7812 35.8835 59.0312C35.3551 58.2812 35.0909 57.3352 35.0909 56.1932V36.6591ZM47.6705 61V34.8182H56.8239C58.6477 34.8182 60.152 35.1335 61.3366 35.7642C62.5213 36.3864 63.4034 37.2259 63.983 38.2827C64.5625 39.331 64.8523 40.4943 64.8523 41.7727C64.8523 42.8977 64.652 43.8267 64.2514 44.5597C63.8594 45.2926 63.3395 45.8722 62.6918 46.2983C62.0526 46.7244 61.358 47.0398 60.608 47.2443V47.5C61.4091 47.5511 62.2145 47.8324 63.0241 48.3438C63.8338 48.8551 64.5114 49.5881 65.0568 50.5426C65.6023 51.4972 65.875 52.6648 65.875 54.0455C65.875 55.358 65.5767 56.5384 64.9801 57.5866C64.3835 58.6349 63.4418 59.4659 62.1548 60.0795C60.8679 60.6932 59.1932 61 57.1307 61H47.6705ZM50.8409 58.1875H57.1307C59.2017 58.1875 60.6719 57.7869 61.5412 56.9858C62.419 56.1761 62.858 55.196 62.858 54.0455C62.858 53.1591 62.6321 52.3409 62.1804 51.5909C61.7287 50.8324 61.0852 50.2273 60.25 49.7756C59.4148 49.3153 58.4261 49.0852 57.2841 49.0852H50.8409V58.1875ZM50.8409 46.3239H56.7216C57.6761 46.3239 58.5369 46.1364 59.304 45.7614C60.0795 45.3864 60.6932 44.858 61.1449 44.1761C61.6051 43.4943 61.8352 42.6932 61.8352 41.7727C61.8352 40.6222 61.4347 39.6463 60.6335 38.8452C59.8324 38.0355 58.5625 37.6307 56.8239 37.6307H50.8409V46.3239Z"/>
</mask>
<path d="M42.3011 41.3636V43.9205H32.125V41.3636H42.3011ZM35.0909 36.6591H38.108V55.375C38.108 56.2273 38.2315 56.8665 38.4787 57.2926C38.7344 57.7102 39.0582 57.9915 39.4503 58.1364C39.8509 58.2727 40.2727 58.3409 40.7159 58.3409C41.0483 58.3409 41.321 58.3239 41.5341 58.2898C41.7472 58.2472 41.9176 58.2131 42.0455 58.1875L42.6591 60.8977C42.4545 60.9744 42.169 61.0511 41.8026 61.1278C41.4361 61.2131 40.9716 61.2557 40.4091 61.2557C39.5568 61.2557 38.7216 61.0724 37.9034 60.706C37.0938 60.3395 36.4205 59.7812 35.8835 59.0312C35.3551 58.2812 35.0909 57.3352 35.0909 56.1932V36.6591ZM47.6705 61V34.8182H56.8239C58.6477 34.8182 60.152 35.1335 61.3366 35.7642C62.5213 36.3864 63.4034 37.2259 63.983 38.2827C64.5625 39.331 64.8523 40.4943 64.8523 41.7727C64.8523 42.8977 64.652 43.8267 64.2514 44.5597C63.8594 45.2926 63.3395 45.8722 62.6918 46.2983C62.0526 46.7244 61.358 47.0398 60.608 47.2443V47.5C61.4091 47.5511 62.2145 47.8324 63.0241 48.3438C63.8338 48.8551 64.5114 49.5881 65.0568 50.5426C65.6023 51.4972 65.875 52.6648 65.875 54.0455C65.875 55.358 65.5767 56.5384 64.9801 57.5866C64.3835 58.6349 63.4418 59.4659 62.1548 60.0795C60.8679 60.6932 59.1932 61 57.1307 61H47.6705ZM50.8409 58.1875H57.1307C59.2017 58.1875 60.6719 57.7869 61.5412 56.9858C62.419 56.1761 62.858 55.196 62.858 54.0455C62.858 53.1591 62.6321 52.3409 62.1804 51.5909C61.7287 50.8324 61.0852 50.2273 60.25 49.7756C59.4148 49.3153 58.4261 49.0852 57.2841 49.0852H50.8409V58.1875ZM50.8409 46.3239H56.7216C57.6761 46.3239 58.5369 46.1364 59.304 45.7614C60.0795 45.3864 60.6932 44.858 61.1449 44.1761C61.6051 43.4943 61.8352 42.6932 61.8352 41.7727C61.8352 40.6222 61.4347 39.6463 60.6335 38.8452C59.8324 38.0355 58.5625 37.6307 56.8239 37.6307H50.8409V46.3239Z" fill="white"/>
<path d="M42.3011 41.3636H43.3011V40.3636H42.3011V41.3636ZM42.3011 43.9205V44.9205H43.3011V43.9205H42.3011ZM32.125 43.9205H31.125V44.9205H32.125V43.9205ZM32.125 41.3636V40.3636H31.125V41.3636H32.125ZM35.0909 36.6591V35.6591H34.0909V36.6591H35.0909ZM38.108 36.6591H39.108V35.6591H38.108V36.6591ZM38.4787 57.2926L37.6137 57.7943L37.6196 57.8046L37.6258 57.8148L38.4787 57.2926ZM39.4503 58.1364L39.1036 59.0744L39.1158 59.0788L39.128 59.083L39.4503 58.1364ZM41.5341 58.2898L41.6921 59.2772L41.7112 59.2742L41.7302 59.2704L41.5341 58.2898ZM42.0455 58.1875L43.0208 57.9667L42.8055 57.0157L41.8493 57.2069L42.0455 58.1875ZM42.6591 60.8977L43.0102 61.8341L43.827 61.5277L43.6344 60.6769L42.6591 60.8977ZM41.8026 61.1278L41.5977 60.1491L41.5868 60.1513L41.576 60.1538L41.8026 61.1278ZM37.9034 60.706L37.491 61.617L37.4946 61.6186L37.9034 60.706ZM35.8835 59.0312L35.066 59.6072L35.0704 59.6134L35.8835 59.0312ZM42.3011 41.3636H41.3011V43.9205H42.3011H43.3011V41.3636H42.3011ZM42.3011 43.9205V42.9205H32.125V43.9205V44.9205H42.3011V43.9205ZM32.125 43.9205H33.125V41.3636H32.125H31.125V43.9205H32.125ZM32.125 41.3636V42.3636H42.3011V41.3636V40.3636H32.125V41.3636ZM35.0909 36.6591V37.6591H38.108V36.6591V35.6591H35.0909V36.6591ZM38.108 36.6591H37.108V55.375H38.108H39.108V36.6591H38.108ZM38.108 55.375H37.108C37.108 56.2912 37.235 57.1415 37.6137 57.7943L38.4787 57.2926L39.3437 56.7909C39.228 56.5914 39.108 56.1634 39.108 55.375H38.108ZM38.4787 57.2926L37.6258 57.8148C37.9778 58.3896 38.4661 58.8388 39.1036 59.0744L39.4503 58.1364L39.7969 57.1984C39.6503 57.1442 39.4909 57.0308 39.3315 56.7705L38.4787 57.2926ZM39.4503 58.1364L39.128 59.083C39.6372 59.2564 40.1683 59.3409 40.7159 59.3409V58.3409V57.3409C40.3771 57.3409 40.0645 57.2891 39.7725 57.1897L39.4503 58.1364ZM40.7159 58.3409V59.3409C41.0762 59.3409 41.4068 59.3229 41.6921 59.2772L41.5341 58.2898L41.3761 57.3023C41.2352 57.3249 41.0204 57.3409 40.7159 57.3409V58.3409ZM41.5341 58.2898L41.7302 59.2704C41.9433 59.2277 42.1137 59.1936 42.2416 59.1681L42.0455 58.1875L41.8493 57.2069C41.7215 57.2325 41.551 57.2666 41.338 57.3092L41.5341 58.2898ZM42.0455 58.1875L41.0701 58.4083L41.6838 61.1186L42.6591 60.8977L43.6344 60.6769L43.0208 57.9667L42.0455 58.1875ZM42.6591 60.8977L42.308 59.9614C42.1729 60.0121 41.9442 60.0765 41.5977 60.1491L41.8026 61.1278L42.0074 62.1066C42.3939 62.0257 42.7362 61.9368 43.0102 61.8341L42.6591 60.8977ZM41.8026 61.1278L41.576 60.1538C41.3106 60.2156 40.9289 60.2557 40.4091 60.2557V61.2557V62.2557C41.0143 62.2557 41.5615 62.2106 42.0291 62.1018L41.8026 61.1278ZM40.4091 61.2557V60.2557C39.705 60.2557 39.0086 60.1053 38.3122 59.7933L37.9034 60.706L37.4946 61.6186C38.4346 62.0396 39.4086 62.2557 40.4091 62.2557V61.2557ZM37.9034 60.706L38.3158 59.7949C37.6725 59.5038 37.1353 59.0618 36.6966 58.4491L35.8835 59.0312L35.0704 59.6134C35.7056 60.5007 36.515 61.1752 37.4911 61.617L37.9034 60.706ZM35.8835 59.0312L36.701 58.4553C36.3177 57.9112 36.0909 57.18 36.0909 56.1932H35.0909H34.0909C34.0909 57.4905 34.3926 58.6513 35.066 59.6072L35.8835 59.0312ZM35.0909 56.1932H36.0909V36.6591H35.0909H34.0909V56.1932H35.0909ZM47.6705 61H46.6705V62H47.6705V61ZM47.6705 34.8182V33.8182H46.6705V34.8182H47.6705ZM61.3366 35.7642L60.8667 36.6469L60.8717 36.6495L61.3366 35.7642ZM63.983 38.2827L63.1061 38.7635L63.1078 38.7665L63.983 38.2827ZM64.2514 44.5597L63.3739 44.0801L63.3696 44.088L64.2514 44.5597ZM62.6918 46.2983L62.1421 45.4629L62.1371 45.4662L62.6918 46.2983ZM60.608 47.2443L60.3448 46.2796L59.608 46.4805V47.2443H60.608ZM60.608 47.5H59.608V48.4382L60.5443 48.498L60.608 47.5ZM63.0241 48.3438L62.4902 49.1892L62.4902 49.1892L63.0241 48.3438ZM64.9801 57.5866L65.8492 58.0813L65.8492 58.0813L64.9801 57.5866ZM62.1548 60.0795L61.7244 59.1769L61.7244 59.1769L62.1548 60.0795ZM50.8409 58.1875H49.8409V59.1875H50.8409V58.1875ZM61.5412 56.9858L62.2189 57.7212L62.2192 57.7209L61.5412 56.9858ZM62.1804 51.5909L61.3212 52.1026L61.3238 52.1068L62.1804 51.5909ZM60.25 49.7756L59.7674 50.6514L59.7743 50.6552L60.25 49.7756ZM50.8409 49.0852V48.0852H49.8409V49.0852H50.8409ZM50.8409 46.3239H49.8409V47.3239H50.8409V46.3239ZM59.304 45.7614L58.8687 44.8611L58.8648 44.863L59.304 45.7614ZM61.1449 44.1761L60.316 43.6166L60.3112 43.6238L61.1449 44.1761ZM60.6335 38.8452L59.9227 39.5485L59.9264 39.5523L60.6335 38.8452ZM50.8409 37.6307V36.6307H49.8409V37.6307H50.8409ZM47.6705 61H48.6705V34.8182H47.6705H46.6705V61H47.6705ZM47.6705 34.8182V35.8182H56.8239V34.8182V33.8182H47.6705V34.8182ZM56.8239 34.8182V35.8182C58.54 35.8182 59.8693 36.1159 60.8667 36.6469L61.3366 35.7642L61.8066 34.8815C60.4347 34.1512 58.7555 33.8182 56.8239 33.8182V34.8182ZM61.3366 35.7642L60.8717 36.6495C61.9022 37.1907 62.6314 37.8978 63.1061 38.7635L63.983 38.2827L64.8598 37.8018C64.1754 36.5539 63.1404 35.582 61.8016 34.8789L61.3366 35.7642ZM63.983 38.2827L63.1078 38.7665C63.6 39.6567 63.8523 40.6518 63.8523 41.7727H64.8523H65.8523C65.8523 40.3368 65.525 39.0052 64.8581 37.7988L63.983 38.2827ZM64.8523 41.7727H63.8523C63.8523 42.7859 63.6711 43.5364 63.3739 44.0801L64.2514 44.5597L65.1289 45.0392C65.6329 44.117 65.8523 43.0096 65.8523 41.7727H64.8523ZM64.2514 44.5597L63.3696 44.088C63.0504 44.6848 62.6406 45.135 62.1421 45.4629L62.6918 46.2983L63.2414 47.1337C64.0384 46.6093 64.6683 45.9004 65.1332 45.0313L64.2514 44.5597ZM62.6918 46.2983L62.1371 45.4662C61.5884 45.832 60.9924 46.1029 60.3448 46.2796L60.608 47.2443L60.8711 48.2091C61.7235 47.9766 62.5167 47.6168 63.2465 47.1303L62.6918 46.2983ZM60.608 47.2443H59.608V47.5H60.608H61.608V47.2443H60.608ZM60.608 47.5L60.5443 48.498C61.1489 48.5366 61.7948 48.7501 62.4902 49.1892L63.0241 48.3438L63.5581 47.4983C62.6342 46.9147 61.6693 46.5657 60.6717 46.502L60.608 47.5ZM63.0241 48.3438L62.4902 49.1892C63.1422 49.6011 63.7122 50.2051 64.1886 51.0388L65.0568 50.5426L65.9251 50.0465C65.3106 48.9711 64.5254 48.1091 63.5581 47.4983L63.0241 48.3438ZM65.0568 50.5426L64.1886 51.0388C64.6283 51.8082 64.875 52.7949 64.875 54.0455H65.875H66.875C66.875 52.5346 66.5763 51.1861 65.9251 50.0465L65.0568 50.5426ZM65.875 54.0455H64.875C64.875 55.2003 64.6144 56.2076 64.111 57.092L64.9801 57.5866L65.8492 58.0813C66.5391 56.8691 66.875 55.5157 66.875 54.0455H65.875ZM64.9801 57.5866L64.111 57.092C63.6329 57.9322 62.8613 58.6348 61.7244 59.1769L62.1548 60.0795L62.5852 60.9822C64.0223 60.297 65.1342 59.3377 65.8492 58.0813L64.9801 57.5866ZM62.1548 60.0795L61.7244 59.1769C60.6182 59.7044 59.1058 60 57.1307 60V61V62C59.2806 62 61.1176 61.682 62.5852 60.9822L62.1548 60.0795ZM57.1307 61V60H47.6705V61V62H57.1307V61ZM50.8409 58.1875V59.1875H57.1307V58.1875V57.1875H50.8409V58.1875ZM57.1307 58.1875V59.1875C59.2803 59.1875 61.0684 58.7814 62.2189 57.7212L61.5412 56.9858L60.8635 56.2504C60.2753 56.7925 59.1231 57.1875 57.1307 57.1875V58.1875ZM61.5412 56.9858L62.2192 57.7209C63.2935 56.73 63.858 55.487 63.858 54.0455H62.858H61.858C61.858 54.905 61.5446 55.6223 60.8632 56.2507L61.5412 56.9858ZM62.858 54.0455H63.858C63.858 52.9797 63.5838 51.9827 63.037 51.075L62.1804 51.5909L61.3238 52.1068C61.6805 52.6991 61.858 53.3385 61.858 54.0455H62.858ZM62.1804 51.5909L63.0396 51.0793C62.4886 50.154 61.7072 49.4268 60.7257 48.896L60.25 49.7756L59.7743 50.6552C60.4633 51.0278 60.9688 51.5107 61.3212 52.1026L62.1804 51.5909ZM60.25 49.7756L60.7326 48.8997C59.7229 48.3434 58.5616 48.0852 57.2841 48.0852V49.0852V50.0852C58.2906 50.0852 59.1066 50.2873 59.7674 50.6514L60.25 49.7756ZM57.2841 49.0852V48.0852H50.8409V49.0852V50.0852H57.2841V49.0852ZM50.8409 49.0852H49.8409V58.1875H50.8409H51.8409V49.0852H50.8409ZM50.8409 46.3239V47.3239H56.7216V46.3239V45.3239H50.8409V46.3239ZM56.7216 46.3239V47.3239C57.8102 47.3239 58.824 47.1091 59.7432 46.6597L59.304 45.7614L58.8648 44.863C58.2499 45.1636 57.542 45.3239 56.7216 45.3239V46.3239ZM59.304 45.7614L59.7393 46.6616C60.6675 46.2128 61.4223 45.568 61.9785 44.7284L61.1449 44.1761L60.3112 43.6238C59.964 44.1479 59.4916 44.5599 58.8687 44.8611L59.304 45.7614ZM61.1449 44.1761L61.9737 44.7356C62.5585 43.8692 62.8352 42.868 62.8352 41.7727H61.8352H60.8352C60.8352 42.5184 60.6517 43.1194 60.316 43.6167L61.1449 44.1761ZM61.8352 41.7727H62.8352C62.8352 40.3616 62.3325 39.13 61.3406 38.1381L60.6335 38.8452L59.9264 39.5523C60.5368 40.1626 60.8352 40.8828 60.8352 41.7727H61.8352ZM60.6335 38.8452L61.3444 38.1418C60.2765 37.0626 58.6914 36.6307 56.8239 36.6307V37.6307V38.6307C58.4336 38.6307 59.3883 39.0084 59.9227 39.5485L60.6335 38.8452ZM56.8239 37.6307V36.6307H50.8409V37.6307V38.6307H56.8239V37.6307ZM50.8409 37.6307H49.8409V46.3239H50.8409H51.8409V37.6307H50.8409Z" fill="white" mask="url(#path-2-outside-1_1_12)"/>
<defs>
<filter id="filter0_d_1_12" x="0" y="0" width="102" height="100" filterUnits="userSpaceOnUse" color-interpolation-filters="sRGB">
<feFlood flood-opacity="0" result="BackgroundImageFix"/>
<feColorMatrix in="SourceAlpha" type="matrix" values="0 0 0 0 0 0 0 0 0 0 0 0 0 0 0 0 0 0 127 0" result="hardAlpha"/>
<feOffset dy="4"/>
<feGaussianBlur stdDeviation="2"/>
<feComposite in2="hardAlpha" operator="out"/>
<feColorMatrix type="matrix" values="0 0 0 0 0 0 0 0 0 0 0 0 0 0 0 0 0 0 0.25 0"/>
<feBlend mode="normal" in2="BackgroundImageFix" result="effect1_dropShadow_1_12"/>
<feBlend mode="normal" in="SourceGraphic" in2="effect1_dropShadow_1_12" result="shape"/>
</filter>
</defs>
</svg>
