<svg width="102" height="100" viewBox="0 0 102 100" fill="none" xmlns="http://www.w3.org/2000/svg">
<g filter="url(#filter0_d_2_56)">
<path d="M20 1.5H82C90.0081 1.5 96.5 7.99187 96.5 16V76C96.5 84.0081 90.0081 90.5 82 90.5H20C11.9919 90.5 5.5 84.0081 5.5 76V16C5.5 7.99187 11.9919 1.5 20 1.5Z" stroke="#F5CEAB" stroke-width="3" shape-rendering="crispEdges"/>
</g>
<mask id="path-2-outside-1_2_56" maskUnits="userSpaceOnUse" x="30" y="33" width="38" height="30" fill="black">
<rect fill="white" x="30" y="33" width="38" height="30"/>
<path d="M42.3011 41.3636V43.9205H32.125V41.3636H42.3011ZM35.0909 36.6591H38.108V55.375C38.108 56.2273 38.2315 56.8665 38.4787 57.2926C38.7344 57.7102 39.0582 57.9915 39.4503 58.1364C39.8509 58.2727 40.2727 58.3409 40.7159 58.3409C41.0483 58.3409 41.321 58.3239 41.5341 58.2898C41.7472 58.2472 41.9176 58.2131 42.0455 58.1875L42.6591 60.8977C42.4545 60.9744 42.169 61.0511 41.8026 61.1278C41.4361 61.2131 40.9716 61.2557 40.4091 61.2557C39.5568 61.2557 38.7216 61.0724 37.9034 60.706C37.0938 60.3395 36.4205 59.7812 35.8835 59.0312C35.3551 58.2812 35.0909 57.3352 35.0909 56.1932V36.6591ZM47.6705 61V34.8182H56.8239C58.6477 34.8182 60.152 35.1335 61.3366 35.7642C62.5213 36.3864 63.4034 37.2259 63.983 38.2827C64.5625 39.331 64.8523 40.4943 64.8523 41.7727C64.8523 42.8977 64.652 43.8267 64.2514 44.5597C63.8594 45.2926 63.3395 45.8722 62.6918 46.2983C62.0526 46.7244 61.358 47.0398 60.608 47.2443V47.5C61.4091 47.5511 62.2145 47.8324 63.0241 48.3438C63.8338 48.8551 64.5114 49.5881 65.0568 50.5426C65.6023 51.4972 65.875 52.6648 65.875 54.0455C65.875 55.358 65.5767 56.5384 64.9801 57.5866C64.3835 58.6349 63.4418 59.4659 62.1548 60.0795C60.8679 60.6932 59.1932 61 57.1307 61H47.6705ZM50.8409 58.1875H57.1307C59.2017 58.1875 60.6719 57.7869 61.5412 56.9858C62.419 56.1761 62.858 55.196 62.858 54.0455C62.858 53.1591 62.6321 52.3409 62.1804 51.5909C61.7287 50.8324 61.0852 50.2273 60.25 49.7756C59.4148 49.3153 58.4261 49.0852 57.2841 49.0852H50.8409V58.1875ZM50.8409 46.3239H56.7216C57.6761 46.3239 58.5369 46.1364 59.304 45.7614C60.0795 45.3864 60.6932 44.858 61.1449 44.1761C61.6051 43.4943 61.8352 42.6932 61.8352 41.7727C61.8352 40.6222 61.4347 39.6463 60.6335 38.8452C59.8324 38.0355 58.5625 37.6307 56.8239 37.6307H50.8409V46.3239Z"/>
</mask>
<path d="M42.3011 41.3636V43.9205H32.125V41.3636H42.3011ZM35.0909 36.6591H38.108V55.375C38.108 56.2273 38.2315 56.8665 38.4787 57.2926C38.7344 57.7102 39.0582 57.9915 39.4503 58.1364C39.8509 58.2727 40.2727 58.3409 40.7159 58.3409C41.0483 58.3409 41.321 58.3239 41.5341 58.2898C41.7472 58.2472 41.9176 58.2131 42.0455 58.1875L42.6591 60.8977C42.4545 60.9744 42.169 61.0511 41.8026 61.1278C41.4361 61.2131 40.9716 61.2557 40.4091 61.2557C39.5568 61.2557 38.7216 61.0724 37.9034 60.706C37.0938 60.3395 36.4205 59.7812 35.8835 59.0312C35.3551 58.2812 35.0909 57.3352 35.0909 56.1932V36.6591ZM47.6705 61V34.8182H56.8239C58.6477 34.8182 60.152 35.1335 61.3366 35.7642C62.5213 36.3864 63.4034 37.2259 63.983 38.2827C64.5625 39.331 64.8523 40.4943 64.8523 41.7727C64.8523 42.8977 64.652 43.8267 64.2514 44.5597C63.8594 45.2926 63.3395 45.8722 62.6918 46.2983C62.0526 46.7244 61.358 47.0398 60.608 47.2443V47.5C61.4091 47.5511 62.2145 47.8324 63.0241 48.3438C63.8338 48.8551 64.5114 49.5881 65.0568 50.5426C65.6023 51.4972 65.875 52.6648 65.875 54.0455C65.875 55.358 65.5767 56.5384 64.9801 57.5866C64.3835 58.6349 63.4418 59.4659 62.1548 60.0795C60.8679 60.6932 59.1932 61 57.1307 61H47.6705ZM50.8409 58.1875H57.1307C59.2017 58.1875 60.6719 57.7869 61.5412 56.9858C62.419 56.1761 62.858 55.196 62.858 54.0455C62.858 53.1591 62.6321 52.3409 62.1804 51.5909C61.7287 50.8324 61.0852 50.2273 60.25 49.7756C59.4148 49.3153 58.4261 49.0852 57.2841 49.0852H50.8409V58.1875ZM50.8409 46.3239H56.7216C57.6761 46.3239 58.5369 46.1364 59.304 45.7614C60.0795 45.3864 60.6932 44.858 61.1449 44.1761C61.6051 43.4943 61.8352 42.6932 61.8352 41.7727C61.8352 40.6222 61.4347 39.6463 60.6335 38.8452C59.8324 38.0355 58.5625 37.6307 56.8239 37.6307H50.8409V46.3239Z" fill="#F5CEAB"/>
<path d="M42.3011 41.3636H43.8011V39.8636H42.3011V41.3636ZM42.3011 43.9205V45.4205H43.8011V43.9205H42.3011ZM32.125 43.9205H30.625V45.4205H32.125V43.9205ZM32.125 41.3636V39.8636H30.625V41.3636H32.125ZM35.0909 36.6591V35.1591H33.5909V36.6591H35.0909ZM38.108 36.6591H39.608V35.1591H38.108V36.6591ZM38.4787 57.2926L37.1811 58.0452L37.1901 58.0606L37.1994 58.0758L38.4787 57.2926ZM39.4503 58.1364L38.9303 59.5434L38.9485 59.5501L38.9669 59.5563L39.4503 58.1364ZM41.5341 58.2898L41.7711 59.7709L41.7998 59.7663L41.8283 59.7606L41.5341 58.2898ZM42.0455 58.1875L43.5084 57.8563L43.1855 56.4298L41.7513 56.7166L42.0455 58.1875ZM42.6591 60.8977L43.1858 62.3022L44.411 61.8428L44.1221 60.5665L42.6591 60.8977ZM41.8026 61.1278L41.4953 59.6597L41.479 59.6631L41.4628 59.6668L41.8026 61.1278ZM37.9034 60.706L37.2849 62.0725L37.2902 62.0749L37.9034 60.706ZM35.8835 59.0312L34.6573 59.8952L34.6639 59.9044L35.8835 59.0312ZM42.3011 41.3636H40.8011V43.9205H42.3011H43.8011V41.3636H42.3011ZM42.3011 43.9205V42.4205H32.125V43.9205V45.4205H42.3011V43.9205ZM32.125 43.9205H33.625V41.3636H32.125H30.625V43.9205H32.125ZM32.125 41.3636V42.8636H42.3011V41.3636V39.8636H32.125V41.3636ZM35.0909 36.6591V38.1591H38.108V36.6591V35.1591H35.0909V36.6591ZM38.108 36.6591H36.608V55.375H38.108H39.608V36.6591H38.108ZM38.108 55.375H36.608C36.608 56.3231 36.7368 57.279 37.1811 58.0452L38.4787 57.2926L39.7762 56.54C39.7263 56.4539 39.608 56.1314 39.608 55.375H38.108ZM38.4787 57.2926L37.1994 58.0758C37.5995 58.7294 38.1701 59.2624 38.9303 59.5434L39.4503 58.1364L39.9703 56.7294C39.9464 56.7205 39.8692 56.6911 39.758 56.5094L38.4787 57.2926ZM39.4503 58.1364L38.9669 59.5563C39.5304 59.7482 40.1162 59.8409 40.7159 59.8409V58.3409V56.8409C40.4293 56.8409 40.1713 56.7973 39.9337 56.7164L39.4503 58.1364ZM40.7159 58.3409V59.8409C41.0901 59.8409 41.4497 59.8224 41.7711 59.7709L41.5341 58.2898L41.2971 56.8086C41.1923 56.8254 41.0065 56.8409 40.7159 56.8409V58.3409ZM41.5341 58.2898L41.8283 59.7606C42.0413 59.718 42.2118 59.6839 42.3396 59.6584L42.0455 58.1875L41.7513 56.7166C41.6234 56.7422 41.453 56.7763 41.2399 56.8189L41.5341 58.2898ZM42.0455 58.1875L40.5825 58.5187L41.1961 61.229L42.6591 60.8977L44.1221 60.5665L43.5084 57.8563L42.0455 58.1875ZM42.6591 60.8977L42.1324 59.4932C42.032 59.5309 41.8317 59.5892 41.4953 59.6597L41.8026 61.1278L42.1099 62.596C42.5063 62.513 42.8771 62.418 43.1858 62.3022L42.6591 60.8977ZM41.8026 61.1278L41.4628 59.6668C41.2479 59.7168 40.9076 59.7557 40.4091 59.7557V61.2557V62.7557C41.0356 62.7557 41.6243 62.7093 42.1423 62.5889L41.8026 61.1278ZM40.4091 61.2557V59.7557C39.7791 59.7557 39.1521 59.6217 38.5166 59.337L37.9034 60.706L37.2902 62.0749C38.2911 62.5232 39.3346 62.7557 40.4091 62.7557V61.2557ZM37.9034 60.706L38.5219 59.3394C37.9619 59.0859 37.4927 58.7021 37.1032 58.1581L35.8835 59.0312L34.6639 59.9044C35.3482 60.8604 36.2256 61.5931 37.2849 62.0725L37.9034 60.706ZM35.8835 59.0312L37.1097 58.1673C36.7989 57.7262 36.5909 57.1023 36.5909 56.1932H35.0909H33.5909C33.5909 57.5681 33.9113 58.8363 34.6573 59.8952L35.8835 59.0312ZM35.0909 56.1932H36.5909V36.6591H35.0909H33.5909V56.1932H35.0909ZM47.6705 61H46.1705V62.5H47.6705V61ZM47.6705 34.8182V33.3182H46.1705V34.8182H47.6705ZM61.3366 35.7642L60.6317 37.0883L60.6392 37.0922L61.3366 35.7642ZM63.983 38.2827L62.6677 39.0039L62.6702 39.0084L63.983 38.2827ZM64.2514 44.5597L62.9351 43.8403L62.9287 43.8522L64.2514 44.5597ZM62.6918 46.2983L61.8673 45.0451L61.8597 45.0502L62.6918 46.2983ZM60.608 47.2443L60.2133 45.7972L59.108 46.0986V47.2443H60.608ZM60.608 47.5H59.108V48.9073L60.5124 48.997L60.608 47.5ZM63.0241 48.3438L62.2232 49.612L62.2232 49.612L63.0241 48.3438ZM64.9801 57.5866L66.2838 58.3286L66.2838 58.3286L64.9801 57.5866ZM62.1548 60.0795L61.5092 58.7256L61.5092 58.7256L62.1548 60.0795ZM50.8409 58.1875H49.3409V59.6875H50.8409V58.1875ZM61.5412 56.9858L62.5577 58.0888L62.5582 58.0884L61.5412 56.9858ZM62.1804 51.5909L60.8916 52.3584L60.8954 52.3648L62.1804 51.5909ZM60.25 49.7756L59.5261 51.0894L59.5364 51.095L60.25 49.7756ZM50.8409 49.0852V47.5852H49.3409V49.0852H50.8409ZM50.8409 46.3239H49.3409V47.8239H50.8409V46.3239ZM59.304 45.7614L58.651 44.4109L58.6452 44.4138L59.304 45.7614ZM61.1449 44.1761L59.9016 43.3369L59.8944 43.3477L61.1449 44.1761ZM60.6335 38.8452L59.5673 39.9002L59.5729 39.9058L60.6335 38.8452ZM50.8409 37.6307V36.1307H49.3409V37.6307H50.8409ZM47.6705 61H49.1705V34.8182H47.6705H46.1705V61H47.6705ZM47.6705 34.8182V36.3182H56.8239V34.8182V33.3182H47.6705V34.8182ZM56.8239 34.8182V36.3182C58.4861 36.3182 59.7279 36.6071 60.6318 37.0883L61.3366 35.7642L62.0415 34.4401C60.5761 33.66 58.8094 33.3182 56.8239 33.3182V34.8182ZM61.3366 35.7642L60.6392 37.0922C61.5926 37.5929 62.2454 38.2338 62.6677 39.0039L63.983 38.2827L65.2982 37.5614C64.5614 36.2179 63.45 35.1798 62.0341 34.4362L61.3366 35.7642ZM63.983 38.2827L62.6702 39.0084C63.1187 39.8196 63.3523 40.7306 63.3523 41.7727H64.8523H66.3523C66.3523 40.2581 66.0063 38.8423 65.2957 37.5569L63.983 38.2827ZM64.8523 41.7727H63.3523C63.3523 42.73 63.1806 43.3912 62.9352 43.8403L64.2514 44.5597L65.5677 45.279C66.1234 44.2622 66.3523 43.0655 66.3523 41.7727H64.8523ZM64.2514 44.5597L62.9287 43.8522C62.6459 44.3809 62.2911 44.7664 61.8673 45.0452L62.6918 46.2983L63.5162 47.5514C64.3879 46.9779 65.0728 46.2043 65.5741 45.2671L64.2514 44.5597ZM62.6918 46.2983L61.8597 45.0502C61.3563 45.3858 60.8096 45.6345 60.2133 45.7972L60.608 47.2443L61.0026 48.6915C61.9063 48.445 62.7488 48.063 63.5238 47.5464L62.6918 46.2983ZM60.608 47.2443H59.108V47.5H60.608H62.108V47.2443H60.608ZM60.608 47.5L60.5124 48.997C61.0188 49.0293 61.5849 49.2089 62.2232 49.612L63.0241 48.3438L63.8251 47.0755C62.8441 46.4559 61.7994 46.073 60.7035 46.003L60.608 47.5ZM63.0241 48.3438L62.2232 49.612C62.7965 49.9741 63.3126 50.5135 63.7545 51.2868L65.0568 50.5426L66.3592 49.7984C65.7101 48.6626 64.8712 47.7362 63.8251 47.0755L63.0241 48.3438ZM65.0568 50.5426L63.7545 51.2868C64.1412 51.9637 64.375 52.86 64.375 54.0455H65.875H67.375C67.375 52.4696 67.0633 51.0306 66.3592 49.7984L65.0568 50.5426ZM65.875 54.0455H64.375C64.375 55.1214 64.1332 56.0422 63.6764 56.8447L64.9801 57.5866L66.2838 58.3286C67.0202 57.0345 67.375 55.5945 67.375 54.0455H65.875ZM64.9801 57.5866L63.6764 56.8447C63.2575 57.5808 62.571 58.2193 61.5092 58.7256L62.1548 60.0795L62.8004 61.4335C64.3125 60.7125 65.5095 59.6891 66.2838 58.3286L64.9801 57.5866ZM62.1548 60.0795L61.5092 58.7256C60.4933 59.21 59.0621 59.5 57.1307 59.5V61V62.5C59.3243 62.5 61.2425 62.1764 62.8004 61.4335L62.1548 60.0795ZM57.1307 61V59.5H47.6705V61V62.5H57.1307V61ZM50.8409 58.1875V59.6875H57.1307V58.1875V56.6875H50.8409V58.1875ZM57.1307 58.1875V59.6875C59.3195 59.6875 61.2667 59.2786 62.5577 58.0888L61.5412 56.9858L60.5247 55.8828C60.077 56.2953 59.0839 56.6875 57.1307 56.6875V58.1875ZM61.5412 56.9858L62.5582 58.0884C63.7307 57.007 64.358 55.6325 64.358 54.0455H62.858H61.358C61.358 54.7595 61.1074 55.3453 60.5242 55.8832L61.5412 56.9858ZM62.858 54.0455H64.358C64.358 52.8899 64.0596 51.8037 63.4653 50.817L62.1804 51.5909L60.8954 52.3648C61.2046 52.8781 61.358 53.4282 61.358 54.0455H62.858ZM62.1804 51.5909L63.4692 50.8234C62.8686 49.8149 62.0182 49.0265 60.9636 48.4562L60.25 49.7756L59.5364 51.095C60.1523 51.428 60.5888 51.8499 60.8916 52.3584L62.1804 51.5909ZM60.25 49.7756L60.9739 48.4618C59.877 47.8574 58.6294 47.5852 57.2841 47.5852V49.0852V50.5852C58.2229 50.5852 58.9525 50.7733 59.5261 51.0893L60.25 49.7756ZM57.2841 49.0852V47.5852H50.8409V49.0852V50.5852H57.2841V49.0852ZM50.8409 49.0852H49.3409V58.1875H50.8409H52.3409V49.0852H50.8409ZM50.8409 46.3239V47.8239H56.7216V46.3239V44.8239H50.8409V46.3239ZM56.7216 46.3239V47.8239C57.8773 47.8239 58.9675 47.5955 59.9628 47.1089L59.304 45.7614L58.6452 44.4138C58.1064 44.6772 57.475 44.8239 56.7216 44.8239V46.3239ZM59.304 45.7614L59.9569 47.1118C60.9614 46.6261 61.7869 45.923 62.3954 45.0046L61.1449 44.1761L59.8944 43.3477C59.5995 43.7929 59.1976 44.1466 58.651 44.4109L59.304 45.7614ZM61.1449 44.1761L62.3882 45.0153C63.0352 44.0567 63.3352 42.9553 63.3352 41.7727H61.8352H60.3352C60.3352 42.431 60.175 42.9319 59.9016 43.3369L61.1449 44.1761ZM61.8352 41.7727H63.3352C63.3352 40.2313 62.7815 38.8718 61.6942 37.7845L60.6335 38.8452L59.5729 39.9058C60.0878 40.4208 60.3352 41.013 60.3352 41.7727H61.8352ZM60.6335 38.8452L61.6998 37.7901C60.4986 36.5762 58.7558 36.1307 56.8239 36.1307V37.6307V39.1307C58.3692 39.1307 59.1662 39.4949 59.5673 39.9002L60.6335 38.8452ZM56.8239 37.6307V36.1307H50.8409V37.6307V39.1307H56.8239V37.6307ZM50.8409 37.6307H49.3409V46.3239H50.8409H52.3409V37.6307H50.8409Z" fill="#F5CEAB" mask="url(#path-2-outside-1_2_56)"/>
<defs>
<filter id="filter0_d_2_56" x="0" y="0" width="102" height="100" filterUnits="userSpaceOnUse" color-interpolation-filters="sRGB">
<feFlood flood-opacity="0" result="BackgroundImageFix"/>
<feColorMatrix in="SourceAlpha" type="matrix" values="0 0 0 0 0 0 0 0 0 0 0 0 0 0 0 0 0 0 127 0" result="hardAlpha"/>
<feOffset dy="4"/>
<feGaussianBlur stdDeviation="2"/>
<feComposite in2="hardAlpha" operator="out"/>
<feColorMatrix type="matrix" values="0 0 0 0 0 0 0 0 0 0 0 0 0 0 0 0 0 0 0.25 0"/>
<feBlend mode="normal" in2="BackgroundImageFix" result="effect1_dropShadow_2_56"/>
<feBlend mode="normal" in="SourceGraphic" in2="effect1_dropShadow_2_56" result="shape"/>
</filter>
</defs>
</svg>
