<svg width="102" height="100" viewBox="0 0 102 100" fill="none" xmlns="http://www.w3.org/2000/svg">
<g filter="url(#filter0_d_1_12)">
<path d="M20 0.5H82C90.5604 0.5 97.5 7.43959 97.5 16V76C97.5 84.5604 90.5604 91.5 82 91.5H20C11.4396 91.5 4.5 84.5604 4.5 76V16L4.50488 15.5996C4.71725 7.22424 11.5735 0.5 20 0.5Z" stroke="black" shape-rendering="crispEdges"/>
</g>
<path d="M42.3011 41.3636V43.9205H32.125V41.3636H42.3011ZM35.0909 36.6591H38.108V55.375C38.108 56.2273 38.2315 56.8665 38.4787 57.2926C38.7344 57.7102 39.0582 57.9915 39.4503 58.1364C39.8509 58.2727 40.2727 58.3409 40.7159 58.3409C41.0483 58.3409 41.321 58.3239 41.5341 58.2898C41.7472 58.2472 41.9176 58.2131 42.0455 58.1875L42.6591 60.8977C42.4545 60.9744 42.169 61.0511 41.8026 61.1278C41.4361 61.2131 40.9716 61.2557 40.4091 61.2557C39.5568 61.2557 38.7216 61.0724 37.9034 60.706C37.0938 60.3395 36.4205 59.7812 35.8835 59.0312C35.3551 58.2812 35.0909 57.3352 35.0909 56.1932V36.6591ZM47.6705 61V34.8182H56.8239C58.6477 34.8182 60.152 35.1335 61.3366 35.7642C62.5213 36.3864 63.4034 37.2259 63.983 38.2827C64.5625 39.331 64.8523 40.4943 64.8523 41.7727C64.8523 42.8977 64.652 43.8267 64.2514 44.5597C63.8594 45.2926 63.3395 45.8722 62.6918 46.2983C62.0526 46.7244 61.358 47.0398 60.608 47.2443V47.5C61.4091 47.5511 62.2145 47.8324 63.0241 48.3438C63.8338 48.8551 64.5114 49.5881 65.0568 50.5426C65.6023 51.4972 65.875 52.6648 65.875 54.0455C65.875 55.358 65.5767 56.5384 64.9801 57.5866C64.3835 58.6349 63.4418 59.4659 62.1548 60.0795C60.8679 60.6932 59.1932 61 57.1307 61H47.6705ZM50.8409 58.1875H57.1307C59.2017 58.1875 60.6719 57.7869 61.5412 56.9858C62.419 56.1761 62.858 55.196 62.858 54.0455C62.858 53.1591 62.6321 52.3409 62.1804 51.5909C61.7287 50.8324 61.0852 50.2273 60.25 49.7756C59.4148 49.3153 58.4261 49.0852 57.2841 49.0852H50.8409V58.1875ZM50.8409 46.3239H56.7216C57.6761 46.3239 58.5369 46.1364 59.304 45.7614C60.0795 45.3864 60.6932 44.858 61.1449 44.1761C61.6051 43.4943 61.8352 42.6932 61.8352 41.7727C61.8352 40.6222 61.4347 39.6463 60.6335 38.8452C59.8324 38.0355 58.5625 37.6307 56.8239 37.6307H50.8409V46.3239Z" fill="black"/>
<defs>
<filter id="filter0_d_1_12" x="0" y="0" width="102" height="100" filterUnits="userSpaceOnUse" color-interpolation-filters="sRGB">
<feFlood flood-opacity="0" result="BackgroundImageFix"/>
<feColorMatrix in="SourceAlpha" type="matrix" values="0 0 0 0 0 0 0 0 0 0 0 0 0 0 0 0 0 0 127 0" result="hardAlpha"/>
<feOffset dy="4"/>
<feGaussianBlur stdDeviation="2"/>
<feComposite in2="hardAlpha" operator="out"/>
<feColorMatrix type="matrix" values="0 0 0 0 0 0 0 0 0 0 0 0 0 0 0 0 0 0 0.25 0"/>
<feBlend mode="normal" in2="BackgroundImageFix" result="effect1_dropShadow_1_12"/>
<feBlend mode="normal" in="SourceGraphic" in2="effect1_dropShadow_1_12" result="shape"/>
</filter>
</defs>
</svg>
